<mxfile host="app.diagrams.net" modified="2023-09-18T05:49:55.116Z" agent="Mozilla/5.0 (Windows NT 10.0; Win64; x64) AppleWebKit/537.36 (KHTML, like Gecko) Chrome/116.0.0.0 Safari/537.36" etag="LO8S02t4hMw6aUOEP0-O" version="21.7.5" type="device">
  <diagram name="Page-1" id="yuBU4UOI9q7oWU37IXr-">
    <mxGraphModel dx="1050" dy="1786" grid="1" gridSize="10" guides="1" tooltips="1" connect="1" arrows="1" fold="1" page="1" pageScale="1" pageWidth="827" pageHeight="1169" math="0" shadow="0">
      <root>
        <mxCell id="0" />
        <mxCell id="1" parent="0" />
        <mxCell id="yyJlMqSg1VZ_SswL8pyC-4" style="edgeStyle=orthogonalEdgeStyle;rounded=0;orthogonalLoop=1;jettySize=auto;html=1;" parent="1" source="yyJlMqSg1VZ_SswL8pyC-1" target="yyJlMqSg1VZ_SswL8pyC-2" edge="1">
          <mxGeometry relative="1" as="geometry" />
        </mxCell>
        <mxCell id="yyJlMqSg1VZ_SswL8pyC-5" style="edgeStyle=orthogonalEdgeStyle;rounded=0;orthogonalLoop=1;jettySize=auto;html=1;" parent="1" source="yyJlMqSg1VZ_SswL8pyC-1" target="yyJlMqSg1VZ_SswL8pyC-3" edge="1">
          <mxGeometry relative="1" as="geometry">
            <Array as="points">
              <mxPoint x="80" y="-20" />
              <mxPoint x="500" y="-20" />
            </Array>
          </mxGeometry>
        </mxCell>
        <mxCell id="yyJlMqSg1VZ_SswL8pyC-1" value="Basic Modules&lt;br&gt;" style="rounded=1;whiteSpace=wrap;html=1;" parent="1" vertex="1">
          <mxGeometry x="20" y="10" width="120" height="60" as="geometry" />
        </mxCell>
        <mxCell id="yyJlMqSg1VZ_SswL8pyC-6" style="edgeStyle=orthogonalEdgeStyle;rounded=0;orthogonalLoop=1;jettySize=auto;html=1;" parent="1" source="yyJlMqSg1VZ_SswL8pyC-2" edge="1">
          <mxGeometry relative="1" as="geometry">
            <mxPoint x="354" y="680.800048828125" as="targetPoint" />
          </mxGeometry>
        </mxCell>
        <mxCell id="yyJlMqSg1VZ_SswL8pyC-2" value="Admin" style="rounded=1;whiteSpace=wrap;html=1;" parent="1" vertex="1">
          <mxGeometry x="294" y="10" width="120" height="60" as="geometry" />
        </mxCell>
        <mxCell id="yyJlMqSg1VZ_SswL8pyC-3" value="Client" style="rounded=1;whiteSpace=wrap;html=1;" parent="1" vertex="1">
          <mxGeometry x="441" y="10" width="120" height="60" as="geometry" />
        </mxCell>
        <mxCell id="yyJlMqSg1VZ_SswL8pyC-7" style="edgeStyle=orthogonalEdgeStyle;rounded=0;orthogonalLoop=1;jettySize=auto;html=1;" parent="1" edge="1">
          <mxGeometry relative="1" as="geometry">
            <mxPoint x="498" y="680.800048828125" as="targetPoint" />
            <mxPoint x="498" y="70" as="sourcePoint" />
          </mxGeometry>
        </mxCell>
        <mxCell id="yyJlMqSg1VZ_SswL8pyC-8" value="Product management&lt;br&gt;" style="rounded=1;whiteSpace=wrap;html=1;" parent="1" vertex="1">
          <mxGeometry x="97.5" y="100" width="100" height="30" as="geometry" />
        </mxCell>
        <mxCell id="yyJlMqSg1VZ_SswL8pyC-9" value="Security &amp;amp; Access control&lt;br&gt;" style="rounded=1;whiteSpace=wrap;html=1;" parent="1" vertex="1">
          <mxGeometry x="50" y="319" width="150" height="50" as="geometry" />
        </mxCell>
        <mxCell id="yyJlMqSg1VZ_SswL8pyC-10" value="User Management" style="rounded=1;whiteSpace=wrap;html=1;" parent="1" vertex="1">
          <mxGeometry x="87.5" y="148" width="110" height="30" as="geometry" />
        </mxCell>
        <mxCell id="yyJlMqSg1VZ_SswL8pyC-11" value="Orders &amp;amp; Inventory Management" style="rounded=1;whiteSpace=wrap;html=1;" parent="1" vertex="1">
          <mxGeometry x="50" y="191" width="150" height="40" as="geometry" />
        </mxCell>
        <mxCell id="yyJlMqSg1VZ_SswL8pyC-12" value="AR content management" style="rounded=1;whiteSpace=wrap;html=1;" parent="1" vertex="1">
          <mxGeometry x="55" y="249" width="145" height="50" as="geometry" />
        </mxCell>
        <mxCell id="yyJlMqSg1VZ_SswL8pyC-13" value="Customer Support" style="rounded=1;whiteSpace=wrap;html=1;" parent="1" vertex="1">
          <mxGeometry x="87.5" y="387" width="110" height="30" as="geometry" />
        </mxCell>
        <mxCell id="yyJlMqSg1VZ_SswL8pyC-14" value="Payment &amp;amp; Billing&lt;br&gt;" style="rounded=1;whiteSpace=wrap;html=1;" parent="1" vertex="1">
          <mxGeometry x="87.5" y="431" width="110" height="30" as="geometry" />
        </mxCell>
        <mxCell id="yyJlMqSg1VZ_SswL8pyC-15" value="Integration &amp;amp; APIs" style="rounded=1;whiteSpace=wrap;html=1;" parent="1" vertex="1">
          <mxGeometry x="80" y="475" width="117.5" height="30" as="geometry" />
        </mxCell>
        <mxCell id="yyJlMqSg1VZ_SswL8pyC-16" value="Feedback&lt;br&gt;" style="rounded=1;whiteSpace=wrap;html=1;" parent="1" vertex="1">
          <mxGeometry x="97.5" y="520" width="100" height="20" as="geometry" />
        </mxCell>
        <mxCell id="yyJlMqSg1VZ_SswL8pyC-17" value="Backup &amp;amp; disaster recovery&lt;br&gt;" style="rounded=1;whiteSpace=wrap;html=1;" parent="1" vertex="1">
          <mxGeometry x="58.75" y="558.5" width="138.75" height="30" as="geometry" />
        </mxCell>
        <mxCell id="yyJlMqSg1VZ_SswL8pyC-18" value="Report Generation" style="rounded=1;whiteSpace=wrap;html=1;" parent="1" vertex="1">
          <mxGeometry x="52.5" y="609" width="145" height="30" as="geometry" />
        </mxCell>
        <mxCell id="yyJlMqSg1VZ_SswL8pyC-21" value="" style="endArrow=none;html=1;rounded=0;exitX=1;exitY=0.75;exitDx=0;exitDy=0;" parent="1" edge="1">
          <mxGeometry width="50" height="50" relative="1" as="geometry">
            <mxPoint x="200.5" y="120.49999999999977" as="sourcePoint" />
            <mxPoint x="353" y="120" as="targetPoint" />
          </mxGeometry>
        </mxCell>
        <mxCell id="yyJlMqSg1VZ_SswL8pyC-22" value="" style="endArrow=none;html=1;rounded=0;exitX=1;exitY=0.75;exitDx=0;exitDy=0;" parent="1" edge="1">
          <mxGeometry width="50" height="50" relative="1" as="geometry">
            <mxPoint x="200.5" y="158.49999999999977" as="sourcePoint" />
            <mxPoint x="353" y="158" as="targetPoint" />
          </mxGeometry>
        </mxCell>
        <mxCell id="yyJlMqSg1VZ_SswL8pyC-23" value="" style="endArrow=none;html=1;rounded=0;exitX=1;exitY=0.75;exitDx=0;exitDy=0;" parent="1" edge="1">
          <mxGeometry width="50" height="50" relative="1" as="geometry">
            <mxPoint x="201.5" y="209.49999999999977" as="sourcePoint" />
            <mxPoint x="354" y="209" as="targetPoint" />
          </mxGeometry>
        </mxCell>
        <mxCell id="yyJlMqSg1VZ_SswL8pyC-24" value="" style="endArrow=none;html=1;rounded=0;exitX=1;exitY=0.75;exitDx=0;exitDy=0;" parent="1" edge="1">
          <mxGeometry width="50" height="50" relative="1" as="geometry">
            <mxPoint x="201" y="274.07999999999976" as="sourcePoint" />
            <mxPoint x="353.5" y="273.58" as="targetPoint" />
          </mxGeometry>
        </mxCell>
        <mxCell id="yyJlMqSg1VZ_SswL8pyC-25" value="" style="endArrow=none;html=1;rounded=0;exitX=1;exitY=0.75;exitDx=0;exitDy=0;" parent="1" edge="1">
          <mxGeometry width="50" height="50" relative="1" as="geometry">
            <mxPoint x="199.5" y="344.0799999999998" as="sourcePoint" />
            <mxPoint x="352" y="343.58000000000004" as="targetPoint" />
          </mxGeometry>
        </mxCell>
        <mxCell id="yyJlMqSg1VZ_SswL8pyC-26" value="" style="endArrow=none;html=1;rounded=0;exitX=1;exitY=0.75;exitDx=0;exitDy=0;" parent="1" edge="1">
          <mxGeometry width="50" height="50" relative="1" as="geometry">
            <mxPoint x="200" y="402.0799999999998" as="sourcePoint" />
            <mxPoint x="352.5" y="401.58000000000004" as="targetPoint" />
          </mxGeometry>
        </mxCell>
        <mxCell id="yyJlMqSg1VZ_SswL8pyC-27" value="" style="endArrow=none;html=1;rounded=0;exitX=1;exitY=0.75;exitDx=0;exitDy=0;" parent="1" edge="1">
          <mxGeometry width="50" height="50" relative="1" as="geometry">
            <mxPoint x="199.5" y="446.07999999999976" as="sourcePoint" />
            <mxPoint x="352" y="445.58" as="targetPoint" />
          </mxGeometry>
        </mxCell>
        <mxCell id="yyJlMqSg1VZ_SswL8pyC-28" value="" style="endArrow=none;html=1;rounded=0;exitX=1;exitY=0.75;exitDx=0;exitDy=0;" parent="1" edge="1">
          <mxGeometry width="50" height="50" relative="1" as="geometry">
            <mxPoint x="201" y="490.07999999999976" as="sourcePoint" />
            <mxPoint x="353.5" y="489.58" as="targetPoint" />
          </mxGeometry>
        </mxCell>
        <mxCell id="yyJlMqSg1VZ_SswL8pyC-29" value="" style="endArrow=none;html=1;rounded=0;exitX=1;exitY=0.75;exitDx=0;exitDy=0;" parent="1" edge="1">
          <mxGeometry width="50" height="50" relative="1" as="geometry">
            <mxPoint x="201" y="530.0799999999997" as="sourcePoint" />
            <mxPoint x="353.5" y="529.5799999999999" as="targetPoint" />
          </mxGeometry>
        </mxCell>
        <mxCell id="yyJlMqSg1VZ_SswL8pyC-30" value="" style="endArrow=none;html=1;rounded=0;exitX=1;exitY=0.75;exitDx=0;exitDy=0;" parent="1" edge="1">
          <mxGeometry width="50" height="50" relative="1" as="geometry">
            <mxPoint x="200" y="573.5799999999997" as="sourcePoint" />
            <mxPoint x="352.5" y="573.0799999999999" as="targetPoint" />
          </mxGeometry>
        </mxCell>
        <mxCell id="yyJlMqSg1VZ_SswL8pyC-31" value="" style="endArrow=none;html=1;rounded=0;exitX=1;exitY=0.75;exitDx=0;exitDy=0;" parent="1" edge="1">
          <mxGeometry width="50" height="50" relative="1" as="geometry">
            <mxPoint x="201.5" y="624.0799999999997" as="sourcePoint" />
            <mxPoint x="354" y="623.5799999999999" as="targetPoint" />
          </mxGeometry>
        </mxCell>
        <mxCell id="yyJlMqSg1VZ_SswL8pyC-32" value="Product catalog&amp;nbsp;" style="rounded=1;whiteSpace=wrap;html=1;" parent="1" vertex="1">
          <mxGeometry x="620" y="100" width="90" height="20" as="geometry" />
        </mxCell>
        <mxCell id="yyJlMqSg1VZ_SswL8pyC-33" value="AR viewer&lt;br&gt;" style="rounded=1;whiteSpace=wrap;html=1;" parent="1" vertex="1">
          <mxGeometry x="620" y="136" width="80" height="19" as="geometry" />
        </mxCell>
        <mxCell id="yyJlMqSg1VZ_SswL8pyC-34" value="Payment Integration" style="rounded=1;whiteSpace=wrap;html=1;" parent="1" vertex="1">
          <mxGeometry x="620" y="343" width="120" height="33" as="geometry" />
        </mxCell>
        <mxCell id="yyJlMqSg1VZ_SswL8pyC-35" value="Shopping cart" style="rounded=1;whiteSpace=wrap;html=1;" parent="1" vertex="1">
          <mxGeometry x="620" y="258" width="85" height="30" as="geometry" />
        </mxCell>
        <mxCell id="yyJlMqSg1VZ_SswL8pyC-36" value="User Profile" style="rounded=1;whiteSpace=wrap;html=1;" parent="1" vertex="1">
          <mxGeometry x="620" y="221" width="80" height="20" as="geometry" />
        </mxCell>
        <mxCell id="yyJlMqSg1VZ_SswL8pyC-37" value="User Registration &amp;amp; Login" style="rounded=1;whiteSpace=wrap;html=1;" parent="1" vertex="1">
          <mxGeometry x="620" y="173" width="150" height="32" as="geometry" />
        </mxCell>
        <mxCell id="yyJlMqSg1VZ_SswL8pyC-38" value="Order History &amp;amp; Tracking" style="rounded=1;whiteSpace=wrap;html=1;" parent="1" vertex="1">
          <mxGeometry x="620" y="391" width="130" height="29" as="geometry" />
        </mxCell>
        <mxCell id="yyJlMqSg1VZ_SswL8pyC-39" value="Product Review&amp;nbsp;" style="rounded=1;whiteSpace=wrap;html=1;" parent="1" vertex="1">
          <mxGeometry x="620" y="437" width="100" height="24" as="geometry" />
        </mxCell>
        <mxCell id="yyJlMqSg1VZ_SswL8pyC-40" value="Help center" style="rounded=1;whiteSpace=wrap;html=1;" parent="1" vertex="1">
          <mxGeometry x="620" y="478" width="80" height="20" as="geometry" />
        </mxCell>
        <mxCell id="yyJlMqSg1VZ_SswL8pyC-41" value="Checkout" style="rounded=1;whiteSpace=wrap;html=1;" parent="1" vertex="1">
          <mxGeometry x="620" y="305" width="80" height="21" as="geometry" />
        </mxCell>
        <mxCell id="yyJlMqSg1VZ_SswL8pyC-42" value="Feedback &amp;amp; Support" style="rounded=1;whiteSpace=wrap;html=1;" parent="1" vertex="1">
          <mxGeometry x="620" y="555.5" width="120" height="31.5" as="geometry" />
        </mxCell>
        <mxCell id="yyJlMqSg1VZ_SswL8pyC-43" value="Privacy &amp;amp; Security&amp;nbsp;" style="rounded=1;whiteSpace=wrap;html=1;" parent="1" vertex="1">
          <mxGeometry x="620" y="513" width="120" height="25" as="geometry" />
        </mxCell>
        <mxCell id="yyJlMqSg1VZ_SswL8pyC-46" value="" style="endArrow=none;html=1;rounded=0;entryX=0;entryY=0.5;entryDx=0;entryDy=0;" parent="1" target="yyJlMqSg1VZ_SswL8pyC-32" edge="1">
          <mxGeometry width="50" height="50" relative="1" as="geometry">
            <mxPoint x="500" y="110" as="sourcePoint" />
            <mxPoint x="600" y="109.71000000000001" as="targetPoint" />
          </mxGeometry>
        </mxCell>
        <mxCell id="yyJlMqSg1VZ_SswL8pyC-47" value="" style="endArrow=none;html=1;rounded=0;entryX=0;entryY=0.5;entryDx=0;entryDy=0;" parent="1" edge="1">
          <mxGeometry width="50" height="50" relative="1" as="geometry">
            <mxPoint x="500" y="145.21" as="sourcePoint" />
            <mxPoint x="620" y="145.21" as="targetPoint" />
          </mxGeometry>
        </mxCell>
        <mxCell id="yyJlMqSg1VZ_SswL8pyC-48" value="" style="endArrow=none;html=1;rounded=0;entryX=0;entryY=0.5;entryDx=0;entryDy=0;" parent="1" edge="1">
          <mxGeometry width="50" height="50" relative="1" as="geometry">
            <mxPoint x="500" y="191" as="sourcePoint" />
            <mxPoint x="620" y="191" as="targetPoint" />
          </mxGeometry>
        </mxCell>
        <mxCell id="yyJlMqSg1VZ_SswL8pyC-49" value="" style="endArrow=none;html=1;rounded=0;entryX=0;entryY=0.5;entryDx=0;entryDy=0;" parent="1" edge="1">
          <mxGeometry width="50" height="50" relative="1" as="geometry">
            <mxPoint x="500" y="231" as="sourcePoint" />
            <mxPoint x="620" y="231" as="targetPoint" />
          </mxGeometry>
        </mxCell>
        <mxCell id="yyJlMqSg1VZ_SswL8pyC-50" value="" style="endArrow=none;html=1;rounded=0;entryX=0;entryY=0.5;entryDx=0;entryDy=0;" parent="1" edge="1">
          <mxGeometry width="50" height="50" relative="1" as="geometry">
            <mxPoint x="500" y="272.71" as="sourcePoint" />
            <mxPoint x="620" y="272.71" as="targetPoint" />
          </mxGeometry>
        </mxCell>
        <mxCell id="yyJlMqSg1VZ_SswL8pyC-51" value="" style="endArrow=none;html=1;rounded=0;entryX=0;entryY=0.5;entryDx=0;entryDy=0;" parent="1" edge="1">
          <mxGeometry width="50" height="50" relative="1" as="geometry">
            <mxPoint x="500" y="315.21000000000004" as="sourcePoint" />
            <mxPoint x="620" y="315.21000000000004" as="targetPoint" />
          </mxGeometry>
        </mxCell>
        <mxCell id="yyJlMqSg1VZ_SswL8pyC-52" value="" style="endArrow=none;html=1;rounded=0;entryX=0;entryY=0.5;entryDx=0;entryDy=0;" parent="1" edge="1">
          <mxGeometry width="50" height="50" relative="1" as="geometry">
            <mxPoint x="500" y="359.21000000000004" as="sourcePoint" />
            <mxPoint x="620" y="359.21000000000004" as="targetPoint" />
          </mxGeometry>
        </mxCell>
        <mxCell id="yyJlMqSg1VZ_SswL8pyC-53" value="" style="endArrow=none;html=1;rounded=0;entryX=0;entryY=0.5;entryDx=0;entryDy=0;" parent="1" edge="1">
          <mxGeometry width="50" height="50" relative="1" as="geometry">
            <mxPoint x="500" y="401.71000000000004" as="sourcePoint" />
            <mxPoint x="620" y="401.71000000000004" as="targetPoint" />
          </mxGeometry>
        </mxCell>
        <mxCell id="yyJlMqSg1VZ_SswL8pyC-54" value="" style="endArrow=none;html=1;rounded=0;entryX=0;entryY=0.5;entryDx=0;entryDy=0;" parent="1" edge="1">
          <mxGeometry width="50" height="50" relative="1" as="geometry">
            <mxPoint x="500" y="448.71" as="sourcePoint" />
            <mxPoint x="620" y="448.71" as="targetPoint" />
          </mxGeometry>
        </mxCell>
        <mxCell id="yyJlMqSg1VZ_SswL8pyC-55" value="" style="endArrow=none;html=1;rounded=0;entryX=0;entryY=0.5;entryDx=0;entryDy=0;" parent="1" edge="1">
          <mxGeometry width="50" height="50" relative="1" as="geometry">
            <mxPoint x="500" y="487.71" as="sourcePoint" />
            <mxPoint x="620" y="487.71" as="targetPoint" />
          </mxGeometry>
        </mxCell>
        <mxCell id="yyJlMqSg1VZ_SswL8pyC-56" value="" style="endArrow=none;html=1;rounded=0;entryX=0;entryY=0.5;entryDx=0;entryDy=0;" parent="1" edge="1">
          <mxGeometry width="50" height="50" relative="1" as="geometry">
            <mxPoint x="500" y="525.21" as="sourcePoint" />
            <mxPoint x="620" y="525.21" as="targetPoint" />
          </mxGeometry>
        </mxCell>
        <mxCell id="yyJlMqSg1VZ_SswL8pyC-57" value="" style="endArrow=none;html=1;rounded=0;entryX=0;entryY=0.5;entryDx=0;entryDy=0;" parent="1" edge="1">
          <mxGeometry width="50" height="50" relative="1" as="geometry">
            <mxPoint x="500" y="573.21" as="sourcePoint" />
            <mxPoint x="620" y="573.21" as="targetPoint" />
          </mxGeometry>
        </mxCell>
        <mxCell id="yyJlMqSg1VZ_SswL8pyC-58" value="Returns &amp;amp; Refunds" style="rounded=1;whiteSpace=wrap;html=1;" parent="1" vertex="1">
          <mxGeometry x="620" y="608" width="110" height="31" as="geometry" />
        </mxCell>
        <mxCell id="yyJlMqSg1VZ_SswL8pyC-59" value="" style="endArrow=none;html=1;rounded=0;entryX=0;entryY=0.5;entryDx=0;entryDy=0;" parent="1" edge="1">
          <mxGeometry width="50" height="50" relative="1" as="geometry">
            <mxPoint x="500" y="623.76" as="sourcePoint" />
            <mxPoint x="620" y="623.76" as="targetPoint" />
          </mxGeometry>
        </mxCell>
      </root>
    </mxGraphModel>
  </diagram>
</mxfile>
